<svg width="44" height="63" viewBox="0 0 44 63" fill="none" xmlns="http://www.w3.org/2000/svg">
<path d="M22.7286 58.9307C11.4384 50.2591 -0.189993 23.7766 0.69671 9.56832C1.11426 2.48937 9.8235 -1.11067 15.8432 1.37364C21.8746 4.19991 24.2019 11.294 26.3752 17.007C28.7385 25.3394 35.7115 36.2798 29.7589 44.224C21.5215 49.6529 16.1593 39.593 13.9339 32.8402C13.0025 28.9992 5.63378 16.5909 8.80278 14.2488C9.87511 13.7453 11.228 14.4739 11.3958 15.6629C14.2041 21.0928 19.2382 46.3617 27.55 41.2139C30.6195 34.9058 21.0057 8.64645 14.9804 5.09592C10.0865 2.57111 3.42418 6.30158 4.17377 12.1313C5.76019 25.7567 15.5644 55.0874 30.999 58.4107C47.8225 56.055 34.6399 30.3622 31.5401 20.5906C30.5212 18.4072 33.9254 16.852 34.8944 19.0661C38.8439 31.0469 50.5597 53.0261 35.8355 61.1312C31.4944 63.2656 26.5239 61.5617 22.7286 58.9307Z" fill="#4285F4"/>
</svg>
