<svg width="158" height="119" viewBox="0 0 158 119" fill="none" xmlns="http://www.w3.org/2000/svg">
<path d="M150.615 97.0948L144.634 96.0528C143.16 95.7958 141.857 97.3198 142.265 98.8248L144.157 105.803C144.69 107.768 142.422 109.435 140.931 108.174L135.875 103.9C134.667 102.878 132.773 103.783 132.589 105.47L131.712 113.479C131.494 115.468 129.03 116.217 128.039 114.596L124.193 108.306C123.32 106.879 121.199 107.255 120.627 108.938L117.981 116.737C117.348 118.604 114.902 118.792 114.249 117.024L111.571 109.784C110.971 108.162 108.795 108.147 107.97 109.761L104.209 117.117C103.321 118.854 100.937 118.666 100.529 116.825L98.8188 109.113C98.4368 107.39 96.2747 107.077 95.2688 108.599L90.7198 115.483C89.6518 117.099 87.3418 116.623 87.1328 114.745L86.2458 106.788C86.0478 105.01 83.9318 104.452 82.7858 105.876L77.6278 112.285C76.4218 113.784 74.1918 113.072 74.1548 111.175L73.9958 103.091C73.9598 101.285 71.9088 100.517 70.6498 101.837L64.9918 107.765C63.6708 109.149 61.5288 108.228 61.6498 106.327L62.1638 98.1969C62.2788 96.3829 60.3068 95.4238 58.9508 96.6338L52.8738 102.057C51.4528 103.325 49.4058 102.208 49.6798 100.315L50.8518 92.2048C51.1128 90.3988 49.2418 89.2598 47.7998 90.3468L41.3418 95.2118C39.8268 96.3528 37.8898 95.0388 38.3248 93.1648L40.1838 85.1508C40.5968 83.3708 38.8518 82.0498 37.3308 82.9918L30.5208 87.2058C28.9138 88.2008 27.1138 86.6758 27.7258 84.8389L30.3338 77.0098C30.9108 75.2788 29.3297 73.7708 27.7377 74.5338L20.6148 77.9488C18.9158 78.7638 17.2958 77.0048 18.1138 75.2338L21.5798 67.7318C22.3398 66.0868 20.9848 64.3838 19.3388 64.9128L11.9868 67.2758C10.1928 67.8528 8.83077 65.8128 9.90877 64.1618L14.4128 57.2628C15.3848 55.7748 14.3708 53.8738 12.7098 54.0678L5.38576 54.9228C3.49876 55.1428 2.56776 52.7418 3.99776 51.3428L9.75776 45.7108C10.9718 44.5248 10.5148 42.4758 8.96477 42.1558L2.48375 40.8168C0.571748 40.4218 0.483748 37.6078 2.35875 36.8148L9.01375 33.9998C10.4497 33.3928 10.8448 31.4258 9.73176 30.4248L5.22075 26.3638C3.71875 25.0118 5.03176 22.3108 7.02376 22.6578L13.0048 23.6998C14.4788 23.9568 15.7818 22.4328 15.3738 20.9288L13.4808 13.9508C12.9478 11.9858 15.2158 10.3188 16.7068 11.5798L21.7628 15.8538C22.9708 16.8748 24.8647 15.9708 25.0487 14.2838L25.9258 6.27484C26.1438 4.28584 28.6078 3.53583 29.5988 5.15783L33.4447 11.4478C34.3177 12.8758 36.4388 12.4988 37.0098 10.8158L39.6557 3.01684C40.2887 1.14984 42.7348 0.961841 43.3878 2.72984L46.0658 9.96983C46.6657 11.5918 48.8418 11.6068 49.6668 9.99284L53.4277 2.63684C54.3158 0.899839 56.6998 1.08783 57.1078 2.92883L58.8178 10.6408C59.1998 12.3638 61.3618 12.6768 62.3678 11.1548L66.9168 4.27084C67.9848 2.65484 70.2948 3.13083 70.5038 5.00883L71.3908 12.9658C71.5888 14.7438 73.7048 15.3018 74.8508 13.8778L80.0088 7.46884C81.2148 5.96984 83.4448 6.68184 83.4818 8.57884L83.6408 16.6628C83.6758 18.4678 85.7278 19.2368 86.9868 17.9168L92.6448 11.9888C93.9658 10.6048 96.1078 11.5258 95.9868 13.4268L95.4728 21.5568C95.3578 23.3708 97.3288 24.3298 98.6858 23.1198L104.763 17.6968C106.184 16.4288 108.231 17.5448 107.957 19.4388L106.785 27.5488C106.524 29.3548 108.395 30.4938 109.838 29.4068L116.296 24.5418C117.811 23.4008 119.748 24.7148 119.313 26.5898L117.454 34.6038C117.041 36.3838 118.786 37.7048 120.307 36.7638L127.117 32.5498C128.724 31.5548 130.524 33.0798 129.912 34.9168L127.304 42.7458C126.727 44.4768 128.308 45.9848 129.9 45.2218L137.023 41.8068C138.722 40.9918 140.342 42.7508 139.524 44.5218L136.058 52.0238C135.298 53.6688 136.653 55.3718 138.299 54.8428L145.651 52.4798C147.445 51.9028 148.806 53.9428 147.729 55.5938L143.225 62.4928C142.253 63.9808 143.267 65.8818 144.928 65.6878L152.252 64.8328C154.139 64.6128 155.07 67.0138 153.64 68.4128L147.88 74.0448C146.666 75.2308 147.123 77.2798 148.673 77.5998L155.154 78.9388C157.066 79.3338 157.154 82.1478 155.279 82.9408L148.624 85.7569C147.188 86.3639 146.793 88.3308 147.906 89.3318L152.417 93.3928C153.92 94.7408 152.607 97.4418 150.615 97.0948Z" fill="#0F9D58" stroke="black" stroke-miterlimit="10"/>
<path d="M137.006 88.2008C145.217 71.3209 125.809 44.9584 93.6564 29.3184C61.5041 13.6785 28.7832 14.6837 20.5723 31.5636C12.3614 48.4436 31.7697 74.8061 63.922 90.446C96.0743 106.086 128.795 105.081 137.006 88.2008Z" fill="#F4D258" stroke="black" stroke-miterlimit="10" stroke-linecap="round" stroke-linejoin="round"/>
<path d="M129.92 84.7545C136.848 70.5121 119.572 47.831 91.3339 34.0949C63.0954 20.3588 34.5874 20.7692 27.6594 35.0116C20.7315 49.254 38.0071 71.9351 66.2455 85.6712C94.484 99.4074 122.992 98.9969 129.92 84.7545Z" fill="#FBBC04" stroke="black" stroke-miterlimit="10" stroke-linecap="round" stroke-linejoin="round"/>
<path d="M59.1542 39.4069C58.9474 39.2861 58.7417 39.1116 58.5371 38.8835C57.5976 37.8278 56.2915 36.8113 54.6186 35.8338C54.07 35.5133 53.4149 35.1788 52.6533 34.8303C51.9007 34.4871 51.0462 34.1326 50.0897 33.7667C49.0987 35.5041 48.2316 36.9881 47.4884 38.2187C49.05 38.6847 50.2804 39.1805 51.1798 39.706C52.8527 40.6834 54.265 41.6112 55.4168 42.4893C56.493 43.3111 56.7157 44.2617 56.0851 45.3409C55.7803 45.8626 55.3411 46.1911 54.7674 46.3264C54.1937 46.4617 53.6415 46.3743 53.1109 46.0642C52.6432 45.791 51.9627 45.3451 51.0693 44.7266C50.176 44.1081 49.4955 43.6623 49.0278 43.389C48.3713 43.0054 47.1172 42.5501 45.2655 42.0231L40.3231 50.4819C40.0183 51.0036 39.5565 51.3189 38.9379 51.4279C38.3282 51.5422 37.758 51.4443 37.2274 51.1343C36.7058 50.8295 36.3855 50.4071 36.2667 49.8672C36.1426 49.3362 36.2356 48.8054 36.5456 48.2748L45.5792 32.8142C45.7841 32.4635 46.0987 31.9354 46.5228 31.2302C46.956 30.5302 47.275 30.0048 47.48 29.654C47.79 29.1234 48.2229 28.7852 48.7786 28.6393C49.3433 28.4988 49.8955 28.5862 50.4351 28.9015C50.7769 29.1012 51.0388 29.3447 51.2208 29.632C52.3692 30.0617 53.4032 30.4909 54.3229 30.9197C55.2479 31.3396 56.0611 31.7544 56.7627 32.1643C57.788 32.7634 58.9551 33.7289 60.2641 35.0607C61.9057 36.7317 62.5216 37.918 62.1117 38.6195C61.8121 39.1322 61.3702 39.4651 60.786 39.6184C60.2108 39.777 59.6669 39.7065 59.1542 39.4069ZM77.3183 50.0202C77.1115 49.8993 76.9058 49.7248 76.7013 49.4967C75.7618 48.4411 74.4556 47.4245 72.7827 46.4471C72.2341 46.1265 71.579 45.792 70.8174 45.4435C70.0649 45.1003 69.2103 44.7458 68.2538 44.38C67.2629 46.1173 66.3958 47.6013 65.6526 48.832C67.2141 49.298 68.4445 49.7937 69.3439 50.3192C71.0168 51.2967 72.4291 52.2245 73.581 53.1026C74.6571 53.9244 74.8799 54.8749 74.2492 55.9542C73.9444 56.4758 73.5052 56.8043 72.9315 56.9396C72.3578 57.0749 71.8056 56.9876 71.275 56.6775C70.8073 56.4042 70.1268 55.9584 69.2335 55.3399C68.3401 54.7214 67.6596 54.2755 67.1919 54.0022C66.5354 53.6186 65.2813 53.1633 63.4296 52.6364L58.4872 61.0952C58.1824 61.6168 57.7207 61.9322 57.102 62.0412C56.4923 62.1555 55.9222 62.0576 55.3915 61.7475C54.8699 61.4427 54.5496 61.0204 54.4308 60.4804C54.3067 59.9495 54.3997 59.4187 54.7098 58.888L63.7433 43.4275C63.9483 43.0767 64.2628 42.5487 64.687 41.8434C65.1201 41.1434 65.4391 40.618 65.6441 40.2673C65.9542 39.7366 66.387 39.3984 66.9427 39.2526C67.5075 39.112 68.0596 39.1994 68.5993 39.5147C68.941 39.7144 69.2029 39.9579 69.3849 40.2452C70.5333 40.6749 71.5674 41.1042 72.4871 41.533C73.412 41.9528 74.2253 42.3677 74.9268 42.7776C75.9521 43.3766 77.1192 44.3421 78.4282 45.674C80.0698 47.345 80.6857 48.5312 80.2758 49.2328C79.9762 49.7454 79.5344 50.0784 78.9502 50.2317C78.3749 50.3902 77.831 50.3197 77.3183 50.0202ZM94.6717 63.5076C93.8623 63.0346 93.5138 62.258 93.6263 61.1776C93.6829 60.6677 93.6449 60.3198 93.5123 60.1338C93.4142 59.992 93.0773 59.7529 92.5017 59.4166C91.3685 58.7544 89.5449 58.8712 87.0309 59.7669C83.5134 61.0173 81.1266 62.7173 79.8707 64.8669C79.2979 65.8472 79.1348 66.8799 79.3814 67.9651C79.6281 69.0502 80.2101 69.8608 81.1275 70.3969C82.0179 70.9171 83.0584 71.2114 84.2491 71.2797C84.6727 71.298 85.6137 71.2567 87.0722 71.1558C88.047 71.098 88.7142 71.1742 89.074 71.3844C89.6136 71.6997 89.9567 72.1656 90.1032 72.7821C90.2385 73.3558 90.1669 73.881 89.8884 74.3576C89.5784 74.8883 89.0739 75.2148 88.375 75.3373C84.6824 75.9787 81.5546 75.5506 78.9913 74.0529C76.9677 72.8705 75.6897 71.1345 75.1575 68.845C74.6567 66.6462 74.9686 64.5844 76.0932 62.6597C77.8537 59.6467 80.9685 57.3407 85.4378 55.7416C89.2328 54.3879 92.2995 54.3942 94.6379 55.7606C95.0337 55.9918 95.381 56.2129 95.6801 56.4238C95.9881 56.6399 96.2477 56.8459 96.4591 57.0418C97.0808 56.8863 97.6704 56.9714 98.228 57.2973C99.1454 57.8333 99.4046 58.6905 99.0056 59.8689C98.7171 60.7137 98.2785 61.6398 97.69 62.6471C97.4272 63.0968 97.0577 63.4298 96.5814 63.6462C95.9559 63.9322 95.3193 63.886 94.6717 63.5076ZM97.0931 85.2993C94.8086 83.9645 93.3068 82.4053 92.5875 80.6218C91.9752 79.1299 91.9923 77.8309 92.6386 76.7247C92.9697 76.158 93.4139 75.7902 93.9711 75.6212C94.5336 75.4431 95.1161 75.5301 95.7187 75.8822C96.5282 76.3552 96.88 77.1157 96.7743 78.1639C96.6406 79.5697 97.4776 80.8007 99.2854 81.857C100.832 82.7609 102.527 83.2986 104.369 83.4701C106.276 83.6552 107.471 83.334 107.954 82.5066C108.616 81.3733 108.585 80.3536 107.86 79.4473C107.347 78.7976 106.1 77.8643 104.121 76.6474C102.586 75.7023 101.363 74.5955 100.451 73.3269C99.2234 71.6082 99.0303 70.0597 99.8718 68.6814C100.924 66.9434 102.797 65.8845 105.492 65.5048C108.192 65.1161 110.653 65.5707 112.875 66.8687C113.756 67.3837 114.726 68.222 115.785 69.3834C117.101 70.8278 117.567 71.8782 117.183 72.5348C116.91 73.0024 116.506 73.3216 115.972 73.4921C115.376 73.6867 114.794 73.6184 114.228 73.2873C113.805 73.0403 113.223 72.5799 112.483 71.906C111.752 71.2374 111.17 70.777 110.739 70.5248C109.573 69.8559 108.308 69.4909 106.945 69.4299C105.54 69.357 104.645 69.6487 104.262 70.3053C104.062 70.6471 104.058 71.025 104.251 71.439C104.457 71.8493 104.863 72.2912 105.467 72.7648C106.581 73.5004 107.691 74.2334 108.796 74.9637C110.704 76.2833 111.954 77.7677 112.546 79.4169C113.193 81.2424 112.959 83.1085 111.845 85.0152C110.489 87.3357 108.14 88.3215 104.797 87.9727C102.251 87.7039 99.6833 86.8128 97.0931 85.2993Z" fill="black"/>
</svg>
