<svg width="635" height="510" viewBox="0 0 635 510" fill="none" xmlns="http://www.w3.org/2000/svg">
<mask id="path-1-outside-1_2130_1047" maskUnits="userSpaceOnUse" x="-0.604801" y="125.104" width="618.76" height="279.086" fill="black">
<rect fill="white" x="-0.604801" y="125.104" width="618.76" height="279.086"/>
<path d="M138.133 273.319L135.838 284.117L38.6584 263.461L40.9535 252.663L30.1558 250.368L48.5169 163.985L59.3146 166.281L61.6098 155.483L169.588 178.434L164.997 200.03L89.4128 183.964L75.642 248.75L108.035 255.636L112.626 234.04L91.03 229.45L95.6203 207.854L149.609 219.33L147.314 230.128L158.112 232.423L148.931 275.614L138.133 273.319ZM267.622 300.843L265.327 311.641L168.147 290.984L191.099 183.007L255.885 196.777L266.683 199.073L288.279 203.663L285.984 214.461L296.781 216.756L294.486 227.553L305.284 229.849L291.513 294.635L280.715 292.34L278.42 303.138L267.622 300.843ZM249 229.171L251.295 218.373L229.7 213.783L215.929 278.569L237.524 283.16L239.819 272.362L250.617 274.657L259.798 231.466L249 229.171ZM308.434 320.803L313.024 299.208L388.609 315.274L393.199 293.678L328.412 279.907L330.707 269.109L319.91 266.814L329.09 223.623L339.888 225.918L342.183 215.121L450.161 238.072L445.571 259.667L369.986 243.601L365.396 265.197L397.789 272.082L430.183 278.968L427.887 289.766L438.685 292.061L429.505 335.252L418.707 332.957L416.412 343.755L308.434 320.803ZM558.994 362.776L556.698 373.573L459.519 352.917L461.814 342.119L451.016 339.824L469.377 253.442L480.175 255.737L482.47 244.939L514.863 251.825L579.65 265.596L577.355 276.393L588.153 278.689L581.267 311.082L538.076 301.901L542.666 280.306L510.273 273.42L496.502 338.207L528.895 345.092L533.486 323.497L565.879 330.382L576.677 332.677L569.791 365.071L558.994 362.776Z"/>
</mask>
<path d="M138.133 273.319L135.838 284.117L38.6584 263.461L40.9535 252.663L30.1558 250.368L48.5169 163.985L59.3146 166.281L61.6098 155.483L169.588 178.434L164.997 200.03L89.4128 183.964L75.642 248.75L108.035 255.636L112.626 234.04L91.03 229.45L95.6203 207.854L149.609 219.33L147.314 230.128L158.112 232.423L148.931 275.614L138.133 273.319ZM267.622 300.843L265.327 311.641L168.147 290.984L191.099 183.007L255.885 196.777L266.683 199.073L288.279 203.663L285.984 214.461L296.781 216.756L294.486 227.553L305.284 229.849L291.513 294.635L280.715 292.34L278.42 303.138L267.622 300.843ZM249 229.171L251.295 218.373L229.7 213.783L215.929 278.569L237.524 283.16L239.819 272.362L250.617 274.657L259.798 231.466L249 229.171ZM308.434 320.803L313.024 299.208L388.609 315.274L393.199 293.678L328.412 279.907L330.707 269.109L319.91 266.814L329.09 223.623L339.888 225.918L342.183 215.121L450.161 238.072L445.571 259.667L369.986 243.601L365.396 265.197L397.789 272.082L430.183 278.968L427.887 289.766L438.685 292.061L429.505 335.252L418.707 332.957L416.412 343.755L308.434 320.803ZM558.994 362.776L556.698 373.573L459.519 352.917L461.814 342.119L451.016 339.824L469.377 253.442L480.175 255.737L482.47 244.939L514.863 251.825L579.65 265.596L577.355 276.393L588.153 278.689L581.267 311.082L538.076 301.901L542.666 280.306L510.273 273.42L496.502 338.207L528.895 345.092L533.486 323.497L565.879 330.382L576.677 332.677L569.791 365.071L558.994 362.776Z" fill="#E43E2B"/>
<path d="M138.133 273.319L142.953 250.645C130.431 247.984 118.121 255.977 115.46 268.5L138.133 273.319ZM135.838 284.117L131.019 306.791C143.541 309.452 155.85 301.459 158.512 288.936L135.838 284.117ZM38.6584 263.461L15.9847 258.641C13.323 271.163 21.3166 283.473 33.8389 286.134L38.6584 263.461ZM40.9535 252.663L63.6273 257.482C66.289 244.96 58.2953 232.651 45.773 229.989L40.9535 252.663ZM30.1558 250.368L7.48203 245.548C4.82032 258.071 12.814 270.38 25.3363 273.041L30.1558 250.368ZM48.5169 163.985L53.3363 141.312C40.814 138.65 28.5048 146.644 25.8431 159.166L48.5169 163.985ZM59.3146 166.281L54.4952 188.954C67.0175 191.616 79.3267 183.622 81.9884 171.1L59.3146 166.281ZM61.6098 155.483L66.4292 132.809C53.9069 130.147 41.5978 138.141 38.936 150.663L61.6098 155.483ZM169.588 178.434L192.261 183.254C194.923 170.731 186.929 158.422 174.407 155.76L169.588 178.434ZM164.997 200.03L160.178 222.703C172.7 225.365 185.009 217.372 187.671 204.849L164.997 200.03ZM89.4128 183.964L94.2323 161.29C81.7099 158.628 69.4008 166.622 66.7391 179.144L89.4128 183.964ZM75.642 248.75L52.9683 243.931C50.3066 256.453 58.3002 268.762 70.8225 271.424L75.642 248.75ZM108.035 255.636L103.216 278.31C115.738 280.971 128.047 272.978 130.709 260.455L108.035 255.636ZM112.626 234.04L135.299 238.86C137.961 226.337 129.967 214.028 117.445 211.367L112.626 234.04ZM91.03 229.45L68.3563 224.631C65.6946 237.153 73.6882 249.462 86.2106 252.124L91.03 229.45ZM95.6203 207.854L100.44 185.181C87.9174 182.519 75.6083 190.513 72.9466 203.035L95.6203 207.854ZM149.609 219.33L172.283 224.15C174.945 211.627 166.951 199.318 154.429 196.656L149.609 219.33ZM147.314 230.128L124.64 225.308C121.979 237.831 129.972 250.14 142.495 252.802L147.314 230.128ZM158.112 232.423L180.786 237.243C183.447 224.72 175.454 212.411 162.931 209.749L158.112 232.423ZM148.931 275.614L144.112 298.288C156.634 300.95 168.943 292.956 171.605 280.434L148.931 275.614ZM138.133 273.319L115.46 268.5L113.165 279.297L135.838 284.117L158.512 288.936L160.807 278.138L138.133 273.319ZM135.838 284.117L140.658 261.443L43.4778 240.787L38.6584 263.461L33.8389 286.134L131.019 306.791L135.838 284.117ZM38.6584 263.461L61.3321 268.28L63.6273 257.482L40.9535 252.663L18.2798 247.843L15.9847 258.641L38.6584 263.461ZM40.9535 252.663L45.773 229.989L34.9752 227.694L30.1558 250.368L25.3363 273.041L36.1341 275.337L40.9535 252.663ZM30.1558 250.368L52.8295 255.187L71.1906 168.805L48.5169 163.985L25.8431 159.166L7.48203 245.548L30.1558 250.368ZM48.5169 163.985L43.6974 186.659L54.4952 188.954L59.3146 166.281L64.1341 143.607L53.3363 141.312L48.5169 163.985ZM59.3146 166.281L81.9884 171.1L84.2835 160.302L61.6098 155.483L38.936 150.663L36.6409 161.461L59.3146 166.281ZM61.6098 155.483L56.7903 178.157L164.768 201.108L169.588 178.434L174.407 155.76L66.4292 132.809L61.6098 155.483ZM169.588 178.434L146.914 173.615L142.324 195.21L164.997 200.03L187.671 204.849L192.261 183.254L169.588 178.434ZM164.997 200.03L169.817 177.356L94.2323 161.29L89.4128 183.964L84.5934 206.638L160.178 222.703L164.997 200.03ZM89.4128 183.964L66.7391 179.144L52.9683 243.931L75.642 248.75L98.3157 253.57L112.087 188.783L89.4128 183.964ZM75.642 248.75L70.8225 271.424L103.216 278.31L108.035 255.636L112.855 232.962L80.4614 226.077L75.642 248.75ZM108.035 255.636L130.709 260.455L135.299 238.86L112.626 234.04L89.9519 229.221L85.3616 250.816L108.035 255.636ZM112.626 234.04L117.445 211.367L95.8495 206.776L91.03 229.45L86.2106 252.124L107.806 256.714L112.626 234.04ZM91.03 229.45L113.704 234.269L118.294 212.674L95.6203 207.854L72.9466 203.035L68.3563 224.631L91.03 229.45ZM95.6203 207.854L90.8009 230.528L144.79 242.004L149.609 219.33L154.429 196.656L100.44 185.181L95.6203 207.854ZM149.609 219.33L126.935 214.511L124.64 225.308L147.314 230.128L169.988 234.947L172.283 224.15L149.609 219.33ZM147.314 230.128L142.495 252.802L153.292 255.097L158.112 232.423L162.931 209.749L152.133 207.454L147.314 230.128ZM158.112 232.423L135.438 227.604L126.258 270.795L148.931 275.614L171.605 280.434L180.786 237.243L158.112 232.423ZM148.931 275.614L153.751 252.94L142.953 250.645L138.133 273.319L133.314 295.993L144.112 298.288L148.931 275.614ZM267.622 300.843L272.442 278.169C259.92 275.507 247.61 283.501 244.949 296.023L267.622 300.843ZM265.327 311.641L260.508 334.314C273.03 336.976 285.339 328.982 288.001 316.46L265.327 311.641ZM168.147 290.984L145.474 286.165C142.812 298.687 150.806 310.996 163.328 313.658L168.147 290.984ZM191.099 183.007L195.918 160.333C183.396 157.671 171.087 165.665 168.425 178.187L191.099 183.007ZM288.279 203.663L310.952 208.482C313.614 195.96 305.62 183.651 293.098 180.989L288.279 203.663ZM285.984 214.461L263.31 209.641C260.648 222.163 268.642 234.473 281.164 237.134L285.984 214.461ZM296.781 216.756L319.455 221.575C322.117 209.053 314.123 196.744 301.601 194.082L296.781 216.756ZM294.486 227.553L271.812 222.734C269.151 235.256 277.144 247.565 289.667 250.227L294.486 227.553ZM305.284 229.849L327.958 234.668C330.619 222.146 322.626 209.837 310.103 207.175L305.284 229.849ZM291.513 294.635L286.694 317.309C299.216 319.971 311.525 311.977 314.187 299.455L291.513 294.635ZM280.715 292.34L285.535 269.666C273.012 267.005 260.703 274.998 258.042 287.521L280.715 292.34ZM278.42 303.138L273.601 325.812C286.123 328.473 298.432 320.48 301.094 307.957L278.42 303.138ZM249 229.171L226.326 224.351C223.665 236.874 231.658 249.183 244.18 251.844L249 229.171ZM251.295 218.373L273.969 223.192C276.631 210.67 268.637 198.361 256.115 195.699L251.295 218.373ZM229.7 213.783L234.519 191.109C221.997 188.447 209.688 196.441 207.026 208.963L229.7 213.783ZM215.929 278.569L193.255 273.75C190.593 286.272 198.587 298.581 211.109 301.243L215.929 278.569ZM237.524 283.16L232.705 305.833C245.227 308.495 257.536 300.501 260.198 287.979L237.524 283.16ZM239.819 272.362L244.639 249.688C232.116 247.026 219.807 255.02 217.146 267.542L239.819 272.362ZM250.617 274.657L245.798 297.331C258.32 299.992 270.629 291.999 273.291 279.476L250.617 274.657ZM259.798 231.466L282.471 236.285C285.133 223.763 277.14 211.454 264.617 208.792L259.798 231.466ZM267.622 300.843L244.949 296.023L242.654 306.821L265.327 311.641L288.001 316.46L290.296 305.662L267.622 300.843ZM265.327 311.641L270.147 288.967L172.967 268.311L168.147 290.984L163.328 313.658L260.508 334.314L265.327 311.641ZM168.147 290.984L190.821 295.804L213.772 187.826L191.099 183.007L168.425 178.187L145.474 286.165L168.147 290.984ZM191.099 183.007L186.279 205.68L251.066 219.451L255.885 196.777L260.705 174.104L195.918 160.333L191.099 183.007ZM255.885 196.777L251.066 219.451L261.864 221.746L266.683 199.073L271.503 176.399L260.705 174.104L255.885 196.777ZM266.683 199.073L261.864 221.746L283.459 226.337L288.279 203.663L293.098 180.989L271.503 176.399L266.683 199.073ZM288.279 203.663L265.605 198.843L263.31 209.641L285.984 214.461L308.657 219.28L310.952 208.482L288.279 203.663ZM285.984 214.461L281.164 237.134L291.962 239.429L296.781 216.756L301.601 194.082L290.803 191.787L285.984 214.461ZM296.781 216.756L274.108 211.936L271.812 222.734L294.486 227.553L317.16 232.373L319.455 221.575L296.781 216.756ZM294.486 227.553L289.667 250.227L300.465 252.522L305.284 229.849L310.103 207.175L299.306 204.88L294.486 227.553ZM305.284 229.849L282.61 225.029L268.839 289.816L291.513 294.635L314.187 299.455L327.958 234.668L305.284 229.849ZM291.513 294.635L296.333 271.962L285.535 269.666L280.715 292.34L275.896 315.014L286.694 317.309L291.513 294.635ZM280.715 292.34L258.042 287.521L255.746 298.318L278.42 303.138L301.094 307.957L303.389 297.16L280.715 292.34ZM278.42 303.138L283.24 280.464L272.442 278.169L267.622 300.843L262.803 323.516L273.601 325.812L278.42 303.138ZM249 229.171L271.674 233.99L273.969 223.192L251.295 218.373L228.621 213.553L226.326 224.351L249 229.171ZM251.295 218.373L256.115 195.699L234.519 191.109L229.7 213.783L224.88 236.456L246.476 241.047L251.295 218.373ZM229.7 213.783L207.026 208.963L193.255 273.75L215.929 278.569L238.602 283.389L252.373 218.602L229.7 213.783ZM215.929 278.569L211.109 301.243L232.705 305.833L237.524 283.16L242.344 260.486L220.748 255.896L215.929 278.569ZM237.524 283.16L260.198 287.979L262.493 277.181L239.819 272.362L217.146 267.542L214.851 278.34L237.524 283.16ZM239.819 272.362L235 295.036L245.798 297.331L250.617 274.657L255.437 251.983L244.639 249.688L239.819 272.362ZM250.617 274.657L273.291 279.476L282.471 236.285L259.798 231.466L237.124 226.646L227.943 269.837L250.617 274.657ZM259.798 231.466L264.617 208.792L253.819 206.497L249 229.171L244.18 251.844L254.978 254.14L259.798 231.466ZM308.434 320.803L285.76 315.984C283.099 328.506 291.092 340.815 303.615 343.477L308.434 320.803ZM313.024 299.208L317.844 276.534C305.321 273.872 293.012 281.866 290.351 294.388L313.024 299.208ZM388.609 315.274L383.789 337.947C396.312 340.609 408.621 332.615 411.282 320.093L388.609 315.274ZM393.199 293.678L415.873 298.497C418.534 285.975 410.541 273.666 398.018 271.004L393.199 293.678ZM328.412 279.907L305.739 275.088C303.077 287.61 311.071 299.919 323.593 302.581L328.412 279.907ZM330.707 269.109L353.381 273.929C356.043 261.407 348.049 249.097 335.527 246.436L330.707 269.109ZM319.91 266.814L297.236 261.995C294.574 274.517 302.568 286.826 315.09 289.488L319.91 266.814ZM329.09 223.623L333.91 200.949C321.387 198.288 309.078 206.281 306.417 218.804L329.09 223.623ZM339.888 225.918L335.069 248.592C347.591 251.254 359.9 243.26 362.562 230.738L339.888 225.918ZM342.183 215.121L347.003 192.447C334.48 189.785 322.171 197.779 319.509 210.301L342.183 215.121ZM450.161 238.072L472.835 242.891C475.496 230.369 467.503 218.06 454.98 215.398L450.161 238.072ZM445.571 259.667L440.751 282.341C453.274 285.003 465.583 277.009 468.244 264.487L445.571 259.667ZM369.986 243.602L374.806 220.928C362.283 218.266 349.974 226.26 347.313 238.782L369.986 243.602ZM365.396 265.197L342.722 260.378C340.061 272.9 348.054 285.209 360.577 287.871L365.396 265.197ZM430.183 278.968L452.856 283.787C455.518 271.265 447.524 258.956 435.002 256.294L430.183 278.968ZM427.887 289.766L405.214 284.946C402.552 297.469 410.546 309.778 423.068 312.439L427.887 289.766ZM438.685 292.061L461.359 296.88C464.021 284.358 456.027 272.049 443.505 269.387L438.685 292.061ZM429.505 335.252L424.685 357.926C437.208 360.587 449.517 352.594 452.178 340.071L429.505 335.252ZM418.707 332.957L423.526 310.283C411.004 307.621 398.695 315.615 396.033 328.137L418.707 332.957ZM416.412 343.755L411.592 366.428C424.115 369.09 436.424 361.096 439.085 348.574L416.412 343.755ZM308.434 320.803L331.108 325.623L335.698 304.027L313.024 299.208L290.351 294.388L285.76 315.984L308.434 320.803ZM313.024 299.208L308.205 321.881L383.789 337.947L388.609 315.274L393.428 292.6L317.844 276.534L313.024 299.208ZM388.609 315.274L411.282 320.093L415.873 298.497L393.199 293.678L370.525 288.859L365.935 310.454L388.609 315.274ZM393.199 293.678L398.018 271.004L333.232 257.233L328.412 279.907L323.593 302.581L388.38 316.352L393.199 293.678ZM328.412 279.907L351.086 284.727L353.381 273.929L330.707 269.109L308.034 264.29L305.739 275.088L328.412 279.907ZM330.707 269.109L335.527 246.436L324.729 244.141L319.91 266.814L315.09 289.488L325.888 291.783L330.707 269.109ZM319.91 266.814L342.583 271.634L351.764 228.443L329.09 223.623L306.417 218.804L297.236 261.995L319.91 266.814ZM329.09 223.623L324.271 246.297L335.069 248.592L339.888 225.918L344.707 203.245L333.91 200.949L329.09 223.623ZM339.888 225.918L362.562 230.738L364.857 219.94L342.183 215.121L319.509 210.301L317.214 221.099L339.888 225.918ZM342.183 215.121L337.364 237.794L445.341 260.746L450.161 238.072L454.98 215.398L347.003 192.447L342.183 215.121ZM450.161 238.072L427.487 233.252L422.897 254.848L445.571 259.667L468.244 264.487L472.835 242.891L450.161 238.072ZM445.571 259.667L450.39 236.994L374.806 220.928L369.986 243.602L365.167 266.275L440.751 282.341L445.571 259.667ZM369.986 243.602L347.313 238.782L342.722 260.378L365.396 265.197L388.07 270.016L392.66 248.421L369.986 243.602ZM365.396 265.197L360.577 287.871L392.97 294.756L397.789 272.082L402.609 249.409L370.215 242.523L365.396 265.197ZM397.789 272.082L392.97 294.756L425.363 301.642L430.183 278.968L435.002 256.294L402.609 249.409L397.789 272.082ZM430.183 278.968L407.509 274.148L405.214 284.946L427.887 289.766L450.561 294.585L452.856 283.787L430.183 278.968ZM427.887 289.766L423.068 312.439L433.866 314.735L438.685 292.061L443.505 269.387L432.707 267.092L427.887 289.766ZM438.685 292.061L416.012 287.241L406.831 330.432L429.505 335.252L452.178 340.071L461.359 296.88L438.685 292.061ZM429.505 335.252L434.324 312.578L423.526 310.283L418.707 332.957L413.887 355.63L424.685 357.926L429.505 335.252ZM418.707 332.957L396.033 328.137L393.738 338.935L416.412 343.755L439.085 348.574L441.381 337.776L418.707 332.957ZM416.412 343.755L421.231 321.081L313.253 298.129L308.434 320.803L303.615 343.477L411.592 366.428L416.412 343.755ZM558.994 362.776L563.813 340.102C551.291 337.44 538.982 345.434 536.32 357.956L558.994 362.776ZM556.698 373.573L551.879 396.247C564.401 398.909 576.711 390.915 579.372 378.393L556.698 373.573ZM459.519 352.917L436.845 348.098C434.183 360.62 442.177 372.929 454.699 375.591L459.519 352.917ZM461.814 342.119L484.487 346.939C487.149 334.416 479.155 322.107 466.633 319.446L461.814 342.119ZM451.016 339.824L428.342 335.005C425.68 347.527 433.674 359.836 446.196 362.498L451.016 339.824ZM469.377 253.442L474.196 230.768C461.674 228.107 449.365 236.1 446.703 248.623L469.377 253.442ZM480.175 255.737L475.355 278.411C487.878 281.073 500.187 273.079 502.848 260.557L480.175 255.737ZM482.47 244.939L487.289 222.266C474.767 219.604 462.458 227.598 459.796 240.12L482.47 244.939ZM579.65 265.596L602.324 270.415C604.985 257.893 596.992 245.584 584.469 242.922L579.65 265.596ZM577.355 276.393L554.681 271.574C552.019 284.096 560.013 296.405 572.535 299.067L577.355 276.393ZM588.153 278.689L610.826 283.508C613.488 270.986 605.494 258.677 592.972 256.015L588.153 278.689ZM581.267 311.082L576.448 333.756C588.97 336.417 601.279 328.424 603.941 315.901L581.267 311.082ZM538.076 301.901L515.402 297.082C512.741 309.604 520.734 321.913 533.257 324.575L538.076 301.901ZM542.666 280.306L565.34 285.125C568.002 272.603 560.008 260.294 547.486 257.632L542.666 280.306ZM510.273 273.42L515.092 250.747C502.57 248.085 490.261 256.079 487.599 268.601L510.273 273.42ZM496.502 338.207L473.828 333.388C471.167 345.91 479.16 358.219 491.683 360.881L496.502 338.207ZM528.895 345.092L524.076 367.766C536.598 370.428 548.907 362.434 551.569 349.912L528.895 345.092ZM533.486 323.497L538.305 300.823C525.783 298.161 513.474 306.155 510.812 318.677L533.486 323.497ZM576.677 332.677L599.351 337.497C602.012 324.975 594.019 312.665 581.496 310.004L576.677 332.677ZM569.791 365.071L564.972 387.744C577.494 390.406 589.803 382.413 592.465 369.89L569.791 365.071ZM558.994 362.776L536.32 357.956L534.025 368.754L556.698 373.573L579.372 378.393L581.667 367.595L558.994 362.776ZM556.698 373.573L561.518 350.9L464.338 330.243L459.519 352.917L454.699 375.591L551.879 396.247L556.698 373.573ZM459.519 352.917L482.192 357.737L484.487 346.939L461.814 342.119L439.14 337.3L436.845 348.098L459.519 352.917ZM461.814 342.119L466.633 319.446L455.835 317.151L451.016 339.824L446.196 362.498L456.994 364.793L461.814 342.119ZM451.016 339.824L473.69 344.644L492.051 258.261L469.377 253.442L446.703 248.623L428.342 335.005L451.016 339.824ZM469.377 253.442L464.558 276.116L475.355 278.411L480.175 255.737L484.994 233.063L474.196 230.768L469.377 253.442ZM480.175 255.737L502.848 260.557L505.144 249.759L482.47 244.939L459.796 240.12L457.501 250.918L480.175 255.737ZM482.47 244.939L477.65 267.613L510.044 274.499L514.863 251.825L519.683 229.151L487.289 222.266L482.47 244.939ZM514.863 251.825L510.044 274.499L574.83 288.269L579.65 265.596L584.469 242.922L519.683 229.151L514.863 251.825ZM579.65 265.596L556.976 260.776L554.681 271.574L577.355 276.393L600.028 281.213L602.324 270.415L579.65 265.596ZM577.355 276.393L572.535 299.067L583.333 301.362L588.153 278.689L592.972 256.015L582.174 253.72L577.355 276.393ZM588.153 278.689L565.479 273.869L558.593 306.262L581.267 311.082L603.941 315.901L610.826 283.508L588.153 278.689ZM581.267 311.082L586.087 288.408L542.895 279.228L538.076 301.901L533.257 324.575L576.448 333.756L581.267 311.082ZM538.076 301.901L560.75 306.721L565.34 285.125L542.666 280.306L519.993 275.486L515.402 297.082L538.076 301.901ZM542.666 280.306L547.486 257.632L515.092 250.747L510.273 273.42L505.454 296.094L537.847 302.98L542.666 280.306ZM510.273 273.42L487.599 268.601L473.828 333.388L496.502 338.207L519.176 343.026L532.947 278.24L510.273 273.42ZM496.502 338.207L491.683 360.881L524.076 367.766L528.895 345.092L533.715 322.419L501.322 315.533L496.502 338.207ZM528.895 345.092L551.569 349.912L556.159 328.316L533.486 323.497L510.812 318.677L506.222 340.273L528.895 345.092ZM533.486 323.497L528.666 346.171L561.06 353.056L565.879 330.382L570.698 307.709L538.305 300.823L533.486 323.497ZM565.879 330.382L561.06 353.056L571.857 355.351L576.677 332.677L581.496 310.004L570.698 307.709L565.879 330.382ZM576.677 332.677L554.003 327.858L547.118 360.251L569.791 365.071L592.465 369.89L599.351 337.497L576.677 332.677ZM569.791 365.071L574.611 342.397L563.813 340.102L558.994 362.776L554.174 385.449L564.972 387.744L569.791 365.071Z" fill="white" mask="url(#path-1-outside-1_2130_1047)"/>
<path d="M138.133 273.319L135.838 284.117L38.6584 263.461L40.9535 252.663L30.1558 250.368L48.5169 163.985L59.3146 166.281L61.6098 155.483L169.588 178.434L164.997 200.03L89.4128 183.964L75.642 248.75L108.035 255.636L112.626 234.04L91.03 229.45L95.6203 207.854L149.609 219.33L147.314 230.128L158.112 232.423L148.931 275.614L138.133 273.319ZM267.622 300.843L265.327 311.641L168.147 290.984L191.099 183.007L255.885 196.777L266.683 199.073L288.279 203.663L285.984 214.461L296.781 216.756L294.486 227.553L305.284 229.849L291.513 294.635L280.715 292.34L278.42 303.138L267.622 300.843ZM249 229.171L251.295 218.373L229.7 213.783L215.929 278.569L237.524 283.16L239.819 272.362L250.617 274.657L259.798 231.466L249 229.171ZM308.434 320.803L313.024 299.208L388.609 315.274L393.199 293.678L328.412 279.907L330.707 269.109L319.91 266.814L329.09 223.623L339.888 225.918L342.183 215.121L450.161 238.072L445.571 259.667L369.986 243.601L365.396 265.197L397.789 272.082L430.183 278.968L427.887 289.766L438.685 292.061L429.505 335.252L418.707 332.957L416.412 343.755L308.434 320.803ZM558.994 362.776L556.698 373.573L459.519 352.917L461.814 342.119L451.016 339.824L469.377 253.442L480.175 255.737L482.47 244.939L514.863 251.825L579.65 265.596L577.355 276.393L588.153 278.689L581.267 311.082L538.076 301.901L542.666 280.306L510.273 273.42L496.502 338.207L528.895 345.092L533.486 323.497L565.879 330.382L576.677 332.677L569.791 365.071L558.994 362.776Z" fill="#2D2C2C"/>
<path d="M607.69 297.634L532.586 229.484L621.598 250.347L607.69 297.634Z" fill="#181818"/>
<path d="M540.931 236.907C550.508 244.227 605.375 288.837 608.157 298.103C608.157 298.103 568.283 292.536 561.792 274.919C556.147 259.596 541.035 239.014 537.195 233.914C536.256 233.086 536.075 232.781 536.349 232.801C536.315 232.757 536.298 232.734 536.298 232.734C536.342 232.761 536.387 232.787 536.431 232.813C538.165 233.186 550.361 241.096 536.431 232.813C536.4 232.807 536.373 232.803 536.349 232.801C536.461 232.947 536.753 233.328 537.195 233.914C537.929 234.562 539.126 235.528 540.931 236.907Z" fill="url(#paint0_linear_2130_1047)"/>
<defs>
<linearGradient id="paint0_linear_2130_1047" x1="572.223" y1="232.738" x2="572.223" y2="298.106" gradientUnits="userSpaceOnUse">
<stop stop-color="#D9D9D9"/>
<stop offset="1" stop-color="#737373"/>
</linearGradient>
</defs>
</svg>
