<svg width="500" height="500" viewBox="0 0 500 500" fill="none" xmlns="http://www.w3.org/2000/svg">
<path d="M276.66 252.27C269.98 267.82 261.02 282.25 251.86 296.44C235.56 321.11 217.9 344.85 200.32 368.61C167.41 412.97 133.5 456.58 99.37 500H94.99C97.72 496.49 100.49 492.94 103.31 489.25C123.25 463.51 145.08 435.5 165.92 408.15C189.05 377.61 211.95 346.89 234.09 315.62C249.97 292.55 266.91 267.76 276.3 242.91C279.88 232.53 282.54 223.45 278.52 213.92C274.48 204.96 266.07 201.56 255.47 200.72C241.33 199.39 227.14 200.28 213.17 202.69C184.9 207.15 157.54 216.41 132.36 228.32C114.63 237.14 97.92 247.85 82.11 259.77C51.59 283.56 22.98 314.83 0.15 346.57C0.1 346.64 0.05 346.71 0 346.78V343.09C19.25 315.74 41.86 290.78 66.87 268.58C86.17 252.2 107.27 237.91 129.92 226.57C152.2 215.85 175.73 207.7 199.86 202.34C215.88 199.29 232.11 196.44 248.49 197.34C257.29 197.8 267.03 197.98 274.27 203.63C289.87 215.55 283.36 237.11 276.66 252.27Z" fill="white"/>
<path d="M260.18 454.73C261.46 468.51 250.06 487.95 242.9 500H238.98C244.26 491.12 249.22 482.23 252.52 473.94C256.33 463.45 260.42 453.5 252.26 445.87C245 439.88 228.13 444.33 219.82 446.98C203.62 453.05 188.09 460.77 172.81 468.85C155.5 478.12 138.86 488.66 122.89 500H118.84C136.27 487.16 154.52 475.43 173.71 465.38C184.6 459.65 195.67 454.23 207.01 449.45C215.54 445.69 224.33 442.32 233.63 441.18C238.71 440.54 244 439.73 249.01 441.17C255.06 442.88 259.59 448.51 260.18 454.73Z" fill="white"/>
<path d="M499.999 397.53V402.44C491.359 405.22 482.769 408.14 474.219 411.18C438.129 424.55 404.369 440.67 369.879 460.03C347.369 472.56 325.459 486.1 303.769 500H296.939C342.559 469.79 389.469 441.25 439.779 419.55C451.149 414.76 465.589 408.84 479.169 404.24C486.059 401.861 493.019 399.65 499.999 397.53Z" fill="white"/>
<path d="M500.001 34.741V37.611C493.131 36.701 486.051 36.681 479.711 37.471C465.471 38.901 451.831 41.101 437.491 45.641C413.861 53.371 393.111 63.011 370.641 73.931C349.871 84.351 329.441 95.501 308.061 104.631C300.851 107.481 288.961 112.171 279.461 111.451C269.401 111.071 260.511 103.531 260.831 93.061C260.831 87.161 262.541 81.401 264.541 75.911C267.461 67.741 271.191 59.911 275.391 52.321C285.851 33.68 298.131 16.07 312.231 0H316.201C308.921 8.14 302.151 16.55 295.941 25.15C284.571 41.95 261.431 76.54 263.671 96.22C264.521 101.45 268.501 105.78 273.481 107.45C285.611 111.64 301.201 103.99 311.971 99.39C332.051 90.55 351.171 79.71 370.871 70.06C393.941 59.01 417.301 48.08 441.951 41.02C454.251 37.54 466.941 35.78 479.651 34.54C486.091 33.9 493.091 33.881 500.001 34.741Z" fill="white"/>
<path d="M470.56 229.141C460.67 232.281 450.74 235.351 440.64 237.721C441.07 237.831 441.51 237.941 441.94 238.051C449.87 240.171 457.53 243.121 465.03 246.451C477.32 251.721 489.13 258.121 500 265.931V274.691C493.66 269.841 486.46 265.221 478.36 260.671C461.83 251.781 448.44 246.071 430.08 241.611C428.21 241.211 426.72 240.911 425.48 240.731C424.76 240.861 423.57 241.041 423.29 241.041C423.07 241.131 422.83 241.161 422.59 241.171C422.79 241.201 420.76 241.691 420.29 241.581C418.03 241.571 416.92 238.981 418.31 237.271C419.12 236.271 420.47 235.891 421.68 235.571C423.74 235.161 423.57 235.211 426.42 235.011C429.28 235.171 432.1 235.681 434.9 236.311C435.8 236.091 436.7 235.861 437.57 235.631C449.85 232.361 461.93 228.391 473.93 224.241C482.94 221.201 491.78 217.891 500 213.641V217.991C490.55 222.551 480.56 226.001 470.56 229.141Z" fill="white"/>
<path d="M111.02 0C109.12 7.16 106.5 14.15 103.71 21.01C96.04 40.35 85.6 58.35 74.02 75.59C59.11 97.36 42.33 117.8 24.06 136.84C16.33 144.67 8.34 152.25 0 159.43V154.4C11.24 144.44 21.74 133.68 31.74 122.47C58.13 92.69 83.71 57.24 98.33 20.77C101.08 13.99 103.68 6.93 105.61 0L111.02 0Z" fill="white"/>
</svg>
