<svg width="375" height="281" viewBox="0 0 375 281" fill="none" xmlns="http://www.w3.org/2000/svg">
<g clip-path="url(#clip0_2130_1077)">
<path fill-rule="evenodd" clip-rule="evenodd" d="M303.819 4.92721L17.1724 87.1218L22.2357 104.78C27.9987 124.878 24.0002 146.875 24.3122 168.025C24.4019 174.112 25.2758 180.193 26.9942 186.186C28.7127 192.179 31.1939 197.799 34.3434 203.008C45.2865 221.11 60.3345 237.646 66.0975 257.744L71.1608 275.402L357.807 193.207L352.744 175.549C346.981 155.451 350.98 133.454 350.668 112.304C350.578 106.217 349.704 100.136 347.986 94.1431C346.267 88.1502 343.786 82.5305 340.636 77.3206C329.693 59.2193 314.645 42.6832 308.882 22.5851L303.819 4.92721Z" fill="white"/>
<path fill-rule="evenodd" clip-rule="evenodd" d="M297.326 14.2182L27.6093 91.5581L32.3034 107.928C37.6462 126.561 33.8073 146.993 34.0229 166.621C34.0849 172.271 34.8839 177.911 36.4771 183.467C38.0702 189.023 40.3816 194.23 43.3227 199.054C53.5415 215.814 67.6241 231.107 72.967 249.739L77.6611 266.109L347.377 188.77L342.683 172.399C337.341 153.767 341.179 133.335 340.964 113.706C340.902 108.057 340.103 102.417 338.51 96.8606C336.917 91.3046 334.605 86.0979 331.664 81.274C321.445 64.5137 307.363 49.2211 302.02 30.5885L297.326 14.2182Z" fill="#F0B501"/>
<path d="M292.477 23.9211L296.339 37.391C298.912 46.364 303.636 54.4495 308.85 62.169C314.14 70.0019 319.761 77.2328 324.59 85.0162C327.285 89.3602 329.392 94.0517 330.829 99.0635C332.266 104.075 332.966 109.17 332.982 114.282C333.011 123.442 332.076 132.553 331.741 141.999C331.41 151.308 331.688 160.668 334.261 169.641L338.124 183.111L82.509 256.408L78.6466 242.938C76.0736 233.965 71.3497 225.879 66.1359 218.16C60.8455 210.327 55.2237 203.096 50.3946 195.313C47.6996 190.969 45.594 186.277 44.1569 181.265C42.7199 176.254 42.0192 171.159 42.0028 166.047C41.9734 156.887 42.9094 147.776 43.2451 138.33C43.5759 129.021 43.2973 119.66 40.7244 110.687L36.8619 97.2175L292.477 23.9211Z" stroke="#E43E2B" stroke-width="3.73799" stroke-linecap="round"/>
<path d="M68.5192 135.26L77.9618 132.552L78.6387 134.913L80.9993 134.236L81.6762 136.596L84.0369 135.919L87.4214 147.723L85.0608 148.4L81.6762 136.596L79.3156 137.273L78.6387 134.913L71.5567 136.943L76.2951 153.468L83.377 151.437L84.0539 153.798L74.6113 156.505L68.5192 135.26ZM82.7001 149.076L85.0608 148.4L85.7377 150.76L83.377 151.437L82.7001 149.076ZM85.7079 132.886L88.0686 132.209L92.8069 148.733L90.4463 149.41L85.7079 132.886ZM92.8069 148.733L102.25 146.026L102.926 148.386L93.4838 151.094L92.8069 148.733ZM97.5112 129.501L99.8718 128.824L104.61 145.349L102.25 146.026L97.5112 129.501ZM87.3917 129.848L96.8343 127.14L97.5112 129.501L88.0686 132.209L87.3917 129.848ZM109.309 126.118L111.669 125.441L116.408 141.966L114.047 142.643L109.309 126.118ZM116.408 141.966L125.85 139.258L126.527 141.619L117.085 144.326L116.408 141.966ZM125.173 136.897L127.534 136.221L128.211 138.581L125.85 139.258L125.173 136.897ZM121.112 122.734L123.473 122.057L124.149 124.417L121.789 125.094L121.112 122.734ZM110.992 123.081L120.435 120.373L121.112 122.734L111.669 125.441L110.992 123.081ZM137.624 117.999L128.181 120.706L130.212 127.788L139.655 125.081L140.331 127.441L130.889 130.149L133.596 139.592L131.236 140.269L125.144 119.023L136.947 115.638L137.624 117.999L139.984 117.322L142.015 124.404L139.655 125.081L137.624 117.999ZM140.331 127.441L142.692 126.765L145.4 136.207L143.039 136.884L140.331 127.441ZM146.724 123.054L149.084 122.377L150.438 127.098L157.52 125.067L156.166 120.346L153.806 121.023L152.452 116.302L150.091 116.979L148.737 112.257L151.098 111.58L152.452 116.302L154.813 115.625L156.166 120.346L158.527 119.669L160.558 126.751L162.918 126.074L164.272 130.796L161.912 131.472L160.558 126.751L148.755 130.136L146.724 123.054ZM147.731 117.656L150.091 116.979L151.445 121.7L149.084 122.377L147.731 117.656ZM146.394 130.813L148.755 130.136L150.108 134.857L147.748 135.534L146.394 130.813ZM165.269 125.4L167.629 124.723L168.306 127.084L182.47 123.023L183.147 125.383L166.623 130.122L165.269 125.4ZM160.53 108.876L177.055 104.137L178.409 108.859L176.048 109.536L175.371 107.175L161.207 111.236L160.53 108.876ZM173.687 110.213L176.048 109.536L176.725 111.896L174.364 112.573L173.687 110.213ZM172.004 113.25L174.364 112.573L175.041 114.934L172.681 115.611L172.004 113.25ZM170.32 116.288L172.681 115.611L173.357 117.971L170.997 118.648L170.32 116.288ZM168.636 119.325L170.997 118.648L171.674 121.009L169.313 121.686L168.636 119.325ZM166.952 122.363L169.313 121.686L169.99 124.047L167.629 124.723L166.952 122.363ZM179.405 103.464L181.766 102.787L183.12 107.508L180.759 108.185L179.405 103.464ZM183.12 107.508L185.48 106.831L186.157 109.192L183.797 109.869L183.12 107.508ZM186.157 109.192L188.518 108.515L189.195 110.875L186.834 111.552L186.157 109.192ZM189.195 110.875L191.555 110.198L194.94 122.002L192.579 122.679L189.195 110.875ZM190.879 107.838L193.239 107.161L193.916 109.522L191.555 110.198L190.879 107.838ZM192.562 104.8L194.923 104.123L195.6 106.484L193.239 107.161L192.562 104.8ZM193.569 99.4021L195.93 98.7252L197.284 103.446L194.923 104.123L193.569 99.4021ZM205.369 96.0185L217.172 92.634L217.849 94.9947L213.128 96.3485L218.543 115.234L216.182 115.911L210.767 97.0254L206.046 98.3792L205.369 96.0185ZM227.999 112.522L225.639 113.199L219.547 91.9531L221.907 91.2762L224.615 100.719L234.058 98.0112L231.35 88.5686L233.711 87.8917L239.803 109.138L237.442 109.814L234.734 100.372L225.292 103.079L227.999 112.522ZM236.059 87.2184L238.419 86.5415L244.511 107.787L242.151 108.464L236.059 87.2184ZM247.536 91.5914L245.176 92.2683L249.237 106.432L246.877 107.109L240.784 85.8633L243.145 85.1864L243.822 87.547L246.183 86.8701L247.536 91.5914L249.897 90.9145L251.251 95.6358L253.612 94.9589L254.288 97.3196L256.649 96.6427L252.588 82.4788L254.948 81.8019L261.04 103.048L258.68 103.725L258.003 101.364L255.642 102.041L254.288 97.3196L251.928 97.9965L251.251 95.6358L248.89 96.3127L247.536 91.5914ZM265.072 99.3369L262.712 100.014L257.973 83.4892L260.334 82.8123L265.072 99.3369L272.154 97.3062L272.831 99.6668L265.749 101.698L265.072 99.3369ZM267.086 88.5405L274.168 86.5098L277.552 98.313L275.192 98.9899L274.515 96.6293L272.154 97.3062L271.477 94.9455L273.838 94.2686L272.484 89.5473L267.763 90.9011L267.086 88.5405ZM269.776 80.1047L260.334 82.8123L259.657 80.4517L269.1 77.7441L269.776 80.1047L272.137 79.4278L272.814 81.7885L270.453 82.4654L269.776 80.1047ZM274.485 78.7545L276.846 78.0776L278.876 85.1596L276.516 85.8365L274.485 78.7545ZM278.876 85.1596L285.958 83.1289L286.635 85.4895L279.553 87.5202L278.876 85.1596ZM286.635 85.4895L288.996 84.8126L291.027 91.8946L288.666 92.5715L286.635 85.4895ZM281.584 94.6022L288.666 92.5715L289.343 94.9321L282.261 96.9628L281.584 94.6022ZM278.547 92.9184L280.907 92.2415L281.584 94.6022L279.223 95.2791L278.547 92.9184ZM276.169 75.717L283.251 73.6863L283.928 76.0469L276.846 78.0776L276.169 75.717ZM283.928 76.0469L286.288 75.37L286.965 77.7307L284.605 78.4076L283.928 76.0469Z" fill="#FCD151"/>
<path d="M57.1003 110.093C63.6923 108.203 66.8196 110.863 68.1262 115.42C69.4221 119.939 68.1903 123.889 61.5983 125.78L53.2695 128.168L48.7715 112.481L57.1003 110.093ZM60.1444 120.639C61.4703 120.259 62.5795 119.334 61.9637 117.187C61.3372 115.002 59.912 114.824 58.5861 115.205L56.4012 115.831L57.9595 121.265L60.1444 120.639ZM80.2475 120.998C74.6638 122.599 70.2293 120.314 68.7728 115.234C67.311 110.136 69.866 105.867 75.4496 104.266C81.0145 102.67 85.4437 104.937 86.9056 110.035C88.3621 115.114 85.8124 119.402 80.2475 120.998ZM78.7321 115.713C80.282 115.269 81.4121 113.853 80.8178 111.78C80.218 109.689 78.515 109.106 76.965 109.55C75.3963 110 74.2796 111.392 74.8793 113.483C75.4737 115.556 77.1634 116.163 78.7321 115.713ZM103.77 114.253C98.3546 115.806 93.864 113.536 92.4075 108.457C90.9457 103.359 93.5567 99.0735 98.9723 97.5206C103.062 96.3479 107.754 96.9225 109.763 102.591L103.937 104.262C103.218 102.811 102.019 102.366 100.488 102.805C98.919 103.255 97.9571 104.764 98.514 106.706C99.0709 108.648 100.686 109.418 102.255 108.968C103.786 108.529 104.562 107.498 104.392 105.849L110.218 104.178C111.529 110.088 107.897 113.069 103.77 114.253ZM130.221 106.102L124.208 107.826L121.334 104.71L118.178 105.615L119.222 109.256L113.078 111.018L108.58 95.3314L118.067 92.6112C122.511 91.3367 125.621 92.3852 126.896 96.8296C127.479 98.8651 127.038 100.568 126.129 101.839L130.221 106.102ZM116.181 98.6491L116.877 101.077L119.753 100.252C120.686 99.9844 120.958 99.381 120.749 98.6527C120.54 97.9244 119.99 97.5567 119.057 97.8245L116.181 98.6491ZM143.634 102.256L142.642 100.701L136.61 102.431L136.575 104.28L130.244 106.096L131.311 88.8135L139.901 86.3503L149.964 100.441L143.634 102.256ZM136.683 97.5396L139.989 96.5918L137.773 93.1649L136.746 93.4595L136.683 97.5396ZM150.242 100.361L148.828 95.4314L154.585 88.1623L154.451 87.6954L147.355 89.7302L145.893 84.6321L161.019 80.2948L162.428 85.2061L156.545 92.5314L156.674 92.9796L163.938 90.8966L165.405 96.0133L150.242 100.361ZM180.094 74.8252L176.84 87.581L178.205 92.343L172.08 94.0993L170.699 89.2813L161.214 80.2389L167.638 78.3968L171.917 82.7477L172.347 82.6246L173.689 76.6619L180.094 74.8252ZM201.705 68.6283L203.167 73.7264L197.677 75.3007L200.713 85.889L194.588 87.6454L191.552 77.057L186.061 78.6314L184.6 73.5333L201.705 68.6283ZM213.818 65.155L219.962 63.3933L224.46 79.0798L218.316 80.8415L216.806 75.5753L211.857 76.9943L213.367 82.2605L207.223 84.0222L202.725 68.3358L208.869 66.5741L210.379 71.8402L215.328 70.4212L213.818 65.155ZM225.584 78.7574L221.086 63.0709L227.23 61.3092L231.728 76.9957L225.584 78.7574ZM232.85 76.674L228.352 60.9876L235.373 58.9742L241.236 64.9727L241.778 64.8174L239.743 57.7212L245.719 56.0077L250.217 71.6941L243.363 73.6593L237.351 67.7036L236.79 67.8643L238.825 74.9605L232.85 76.674ZM266.056 57.492L268.615 66.4184L265.553 67.2966L264.945 65.5306L264.833 65.5627C264.098 67.2286 262.472 68.7458 259.82 69.5062C254.965 70.8984 250.269 68.6881 248.812 63.6087C247.351 58.5106 249.924 54.2359 255.583 52.6134C259.504 51.4888 264.089 52.2557 265.82 56.5289L259.732 58.2746C259.5 57.9573 258.536 57.4859 257.247 57.8554C255.324 58.4069 254.362 59.9155 254.919 61.8576C255.476 63.7998 257.147 64.5534 258.809 64.0768C259.089 63.9965 260.829 63.5785 260.958 61.9853L258.25 62.7618L257.447 59.9606L266.056 57.492ZM277.827 64.3429C271.976 66.0003 268.917 65.0586 267.88 60.6672L273.389 59.0876C273.614 59.8719 274.439 60.1406 276.461 59.581C278.153 59.1364 278.675 58.5622 278.563 58.17C278.53 58.058 278.511 57.4976 277.161 57.723L274.997 58C271.9 58.4032 267.901 59.4691 266.637 55.0619C265.721 51.8686 267.688 49.1422 273.066 47.6C277.847 46.2292 281.492 46.3965 282.722 51.3187L277.25 52.8877C276.876 52.1462 276.014 51.8882 274.295 52.3808C272.839 52.7985 272.522 53.3138 272.629 53.6873C272.661 53.7993 272.768 54.3142 273.715 54.1639L275.434 53.9541C278.777 53.5613 283.411 52.0305 284.744 56.6804C285.783 60.3033 283.533 62.7471 277.827 64.3429Z" fill="#E43E2B"/>
<path d="M131.343 220.085L129.816 214.759L124.081 216.404L120.909 205.342L114.51 207.177L117.682 218.239L111.946 219.883L113.473 225.209L131.343 220.085ZM143.997 216.457L150.416 214.616L145.717 198.229L139.298 200.069L140.876 205.571L135.706 207.053L134.128 201.552L127.71 203.392L132.409 219.78L138.827 217.939L137.25 212.438L142.42 210.955L143.997 216.457ZM160.294 194.049L160.276 195.975L153.975 197.782L152.919 196.164L146.306 198.06L156.818 212.78L165.793 210.207L166.907 192.153L160.294 194.049ZM156.747 202.075L160.2 201.085L160.134 205.348L159.061 205.655L156.747 202.075ZM186.646 204.227L185.119 198.901L179.383 200.546L176.212 189.485L169.813 191.319L172.985 202.381L167.249 204.026L168.776 209.351L186.646 204.227ZM188.18 186.053L192.879 202.44L200.916 200.135L200.387 191.737L200.855 191.602L204.857 199.005L212.895 196.701L208.196 180.313L202.089 182.064L203.673 187.585L203.185 187.725L200.529 182.512L195.847 183.854L196.357 189.683L195.869 189.823L194.286 184.302L188.18 186.053ZM222.775 176.133L222.757 178.059L216.456 179.866L215.401 178.247L208.787 180.144L219.3 194.864L228.274 192.291L229.389 174.236L222.775 176.133ZM219.228 184.159L222.682 183.169L222.616 187.432L221.543 187.739L219.228 184.159ZM249.128 186.311L247.601 180.985L241.865 182.63L238.693 171.568L232.294 173.403L235.466 184.465L229.73 186.109L231.258 191.435L249.128 186.311ZM267.966 180.909L266.439 175.583L260.703 177.228L257.531 166.167L251.132 168.001L254.304 179.063L248.569 180.708L250.096 186.033L267.966 180.909ZM264.333 164.216L269.032 180.604L284.444 176.184L282.983 171.093L273.99 173.671L273.677 172.579L282.319 170.101L281.161 166.062L272.519 168.541L272.211 167.468L281.205 164.889L279.745 159.797L264.333 164.216ZM298.817 154.328L292.535 156.129L291.714 160.482L288.417 161.427L287.326 157.623L280.907 159.464L285.606 175.851L295.517 173.009C300.16 171.678 302.335 169.027 301.003 164.384C300.394 162.258 299.06 160.993 297.551 160.37L298.817 154.328ZM290.503 168.704L289.776 166.168L292.78 165.306C293.756 165.027 294.33 165.411 294.549 166.172C294.767 166.933 294.483 167.563 293.508 167.843L290.503 168.704Z" fill="#E43E2B"/>
<path d="M124.34 194.067L135.199 190.953L134.576 188.781L130.233 190.027L125.251 172.653L123.079 173.276L128.061 190.65L123.717 191.895L124.34 194.067ZM133.95 170.158L131.779 170.781L137.383 190.327L139.555 189.704L137.064 181.017L145.751 178.526L148.242 187.213L150.414 186.59L144.809 167.045L142.637 167.667L145.128 176.354L136.441 178.845L133.95 170.158ZM152.255 176.661L154.426 176.039L153.181 171.695L159.696 169.827L160.942 174.17L158.77 174.793L160.015 179.137L157.844 179.759L159.089 184.103L161.261 183.48L160.015 179.137L162.187 178.514L160.942 174.17L163.113 173.548L161.245 167.032L163.417 166.41L162.171 162.066L160 162.689L161.245 167.032L150.386 170.146L152.255 176.661ZM155.672 180.382L157.844 179.759L156.598 175.416L154.426 176.039L155.672 180.382ZM148.215 170.769L150.386 170.146L149.141 165.803L146.969 166.425L148.215 170.769ZM169.938 180.992L180.797 177.878L180.174 175.706L175.831 176.952L170.849 159.578L168.677 160.201L173.659 177.575L169.315 178.82L169.938 180.992ZM191.356 165.449L189.184 166.072L186.07 155.213L183.898 155.836L189.503 175.382L191.675 174.759L190.429 170.415L192.601 169.793L191.356 165.449L193.527 164.827L192.282 160.483L194.454 159.86L193.208 155.517L191.036 156.14L192.282 160.483L190.11 161.106L191.356 165.449ZM199.116 167.925L201.288 167.302L202.533 171.645L204.705 171.023L199.101 151.477L196.929 152.1L200.042 162.958L197.871 163.581L199.116 167.925ZM195.699 164.204L197.871 163.581L196.625 159.238L194.454 159.86L195.699 164.204ZM206.548 161.093L208.72 160.47L207.474 156.127L213.99 154.258L215.235 158.602L213.063 159.225L214.309 163.568L212.137 164.191L213.383 168.534L215.554 167.912L214.309 163.568L216.481 162.945L215.235 158.602L217.407 157.979L215.539 151.464L217.71 150.841L216.465 146.498L214.293 147.12L215.539 151.464L204.68 154.578L206.548 161.093ZM209.965 164.814L212.137 164.191L210.892 159.847L208.72 160.47L209.965 164.814ZM202.508 155.2L204.68 154.578L203.434 150.234L201.263 150.857L202.508 155.2ZM224.232 165.423L235.09 162.31L234.468 160.138L230.124 161.383L225.142 144.01L222.971 144.632L227.953 162.006L223.609 163.252L224.232 165.423ZM237.275 161.683L248.134 158.57L247.511 156.398L243.167 157.643L238.186 140.269L236.014 140.892L240.996 158.266L236.652 159.512L237.275 161.683ZM250.318 157.943L261.177 154.83L260.554 152.658L251.867 155.149L249.999 148.634L256.514 146.765L255.891 144.594L249.376 146.462L247.508 139.947L256.195 137.456L255.572 135.284L244.713 138.398L250.318 157.943ZM273.597 148.918L264.91 151.409L263.042 144.893L271.729 142.403L271.106 140.231L262.419 142.722L259.928 134.035L257.757 134.657L263.361 154.203L274.22 151.089L273.597 148.918L275.769 148.295L273.901 141.78L271.729 142.403L273.597 148.918ZM271.106 140.231L273.278 139.608L270.787 130.921L268.615 131.544L271.106 140.231Z" fill="#FCD151"/>
</g>
<defs>
<clipPath id="clip0_2130_1077">
<rect width="333.927" height="195.868" fill="white" transform="translate(0 92.0444) rotate(-16)"/>
</clipPath>
</defs>
</svg>
