<svg width="39" height="62" viewBox="0 0 39 62" fill="none" xmlns="http://www.w3.org/2000/svg">
<path d="M17.3434 57.8898C7.22234 48.3347 -1.16998 21.4726 1.34862 7.78373C2.57958 0.96108 11.5781 -1.64645 17.2221 1.37358C22.838 4.72643 24.31 11.8423 25.7901 17.6032C27.1542 25.9235 32.7586 37.2409 25.9734 44.341C17.2281 48.77 13.109 38.47 11.6979 31.6955C11.2248 27.876 5.40044 15.0951 8.79419 13.1453C9.90912 12.7658 11.1578 13.6096 11.1856 14.7798C13.3241 20.3305 15.3592 45.3465 24.1453 41.1977C27.9002 35.3917 21.4671 8.95044 15.941 4.89583C11.4111 1.95075 4.41436 4.89247 4.47808 10.6221C4.46388 23.9967 10.7291 53.4358 25.5529 58.2247C42.403 57.6472 32.3878 31.3934 30.4645 21.6025C29.7134 19.3817 33.2478 18.219 33.9463 20.4645C36.4509 32.4839 45.4507 54.9877 30.0037 61.3538C25.4791 62.9832 20.7786 60.8264 17.3434 57.8898Z" fill="#EA4335"/>
</svg>
