<svg width="120" height="114" viewBox="0 0 120 114" fill="none" xmlns="http://www.w3.org/2000/svg">
<mask id="path-1-outside-1_2130_1072" maskUnits="userSpaceOnUse" x="0" y="0.808594" width="120" height="113" fill="black">
<rect fill="white" y="0.808594" width="120" height="113"/>
<path d="M71.5645 9.80859L69.9541 43.835L101.078 30.7617L108.054 51.1768L75.3203 61.0273L97.8584 88.4268L79.2559 100.784L59.9375 71.7725L40.6191 100.963L22.0166 88.4268L44.7334 61.0273L12 51.1768L18.9756 30.7617L50.0996 43.835L48.4893 9.80859H71.5645Z"/>
</mask>
<path d="M71.5645 9.80859L69.9541 43.835L101.078 30.7617L108.054 51.1768L75.3203 61.0273L97.8584 88.4268L79.2559 100.784L59.9375 71.7725L40.6191 100.963L22.0166 88.4268L44.7334 61.0273L12 51.1768L18.9756 30.7617L50.0996 43.835L48.4893 9.80859H71.5645Z" fill="#F0B501"/>
<path d="M71.5645 9.80859L80.5212 10.2325L80.9657 0.841784H71.5645V9.80859ZM69.9541 43.835L60.9973 43.4111L60.3256 57.605L73.4266 52.1021L69.9541 43.835ZM101.078 30.7617L109.563 27.8624L106.459 18.776L97.6056 22.4946L101.078 30.7617ZM108.054 51.1768L110.638 59.7632L119.547 57.082L116.539 48.2775L108.054 51.1768ZM75.3203 61.0273L72.7364 52.4409L59.8392 56.3221L68.3953 66.7237L75.3203 61.0273ZM97.8584 88.4268L102.82 95.8958L111.093 90.4004L104.783 82.7304L97.8584 88.4268ZM79.2559 100.784L71.7923 105.754L76.7567 113.209L84.2174 108.253L79.2559 100.784ZM59.9375 71.7725L67.401 66.8026L59.9146 55.5597L52.4599 66.8238L59.9375 71.7725ZM40.6191 100.963L35.6081 108.399L43.1065 113.452L48.0967 105.912L40.6191 100.963ZM22.0166 88.4268L15.1138 82.7036L8.79245 90.3279L17.0056 95.8627L22.0166 88.4268ZM44.7334 61.0273L51.6362 66.7505L60.2688 56.3385L47.3173 52.4409L44.7334 61.0273ZM12 51.1768L3.51485 48.2775L0.506444 57.082L9.41605 59.7632L12 51.1768ZM18.9756 30.7617L22.4481 22.4946L13.5952 18.776L10.4904 27.8624L18.9756 30.7617ZM50.0996 43.835L46.6271 52.1021L59.7281 57.605L59.0564 43.4111L50.0996 43.835ZM48.4893 9.80859V0.841784H39.088L39.5325 10.2325L48.4893 9.80859ZM71.5645 9.80859L62.6077 9.3847L60.9973 43.4111L69.9541 43.835L78.9109 44.2589L80.5212 10.2325L71.5645 9.80859ZM69.9541 43.835L73.4266 52.1021L104.551 39.0288L101.078 30.7617L97.6056 22.4946L66.4816 35.5678L69.9541 43.835ZM101.078 30.7617L92.593 33.661L99.5686 54.076L108.054 51.1768L116.539 48.2775L109.563 27.8624L101.078 30.7617ZM108.054 51.1768L105.47 42.5903L72.7364 52.4409L75.3203 61.0273L77.9043 69.6138L110.638 59.7632L108.054 51.1768ZM75.3203 61.0273L68.3953 66.7237L90.9334 94.1231L97.8584 88.4268L104.783 82.7304L82.2453 55.331L75.3203 61.0273ZM97.8584 88.4268L92.8968 80.9577L74.2943 93.3151L79.2559 100.784L84.2174 108.253L102.82 95.8958L97.8584 88.4268ZM79.2559 100.784L86.7194 95.8143L67.401 66.8026L59.9375 71.7725L52.474 76.7423L71.7923 105.754L79.2559 100.784ZM59.9375 71.7725L52.4599 66.8238L33.1416 96.0142L40.6191 100.963L48.0967 105.912L67.4151 76.7212L59.9375 71.7725ZM40.6191 100.963L45.6302 93.5269L27.0276 80.9908L22.0166 88.4268L17.0056 95.8627L35.6081 108.399L40.6191 100.963ZM22.0166 88.4268L28.9195 94.1499L51.6362 66.7505L44.7334 61.0273L37.8305 55.3042L15.1138 82.7036L22.0166 88.4268ZM44.7334 61.0273L47.3173 52.4409L14.5839 42.5903L12 51.1768L9.41605 59.7632L42.1495 69.6138L44.7334 61.0273ZM12 51.1768L20.4852 54.076L27.4607 33.661L18.9756 30.7617L10.4904 27.8624L3.51485 48.2775L12 51.1768ZM18.9756 30.7617L15.5031 39.0288L46.6271 52.1021L50.0996 43.835L53.5721 35.5678L22.4481 22.4946L18.9756 30.7617ZM50.0996 43.835L59.0564 43.4111L57.446 9.3847L48.4893 9.80859L39.5325 10.2325L41.1428 44.2589L50.0996 43.835ZM48.4893 9.80859V18.7754H71.5645V9.80859V0.841784H48.4893V9.80859Z" fill="#2D2C2C" mask="url(#path-1-outside-1_2130_1072)"/>
</svg>
