<svg width="44" height="61" viewBox="0 0 44 61" fill="none" xmlns="http://www.w3.org/2000/svg">
<path d="M20.8439 57.4325C32.1224 49.2758 43.939 23.7343 43.2232 9.83399C42.8906 2.90916 34.3079 -0.847217 28.3189 1.41266C22.3144 4.00616 19.9289 10.87 17.7117 16.3892C15.2765 24.4613 8.24696 34.9531 14.0505 42.8758C22.145 48.4052 27.5695 38.7288 29.8502 32.1956C30.8163 28.4702 38.2544 16.5559 35.1433 14.181C34.0872 13.6597 32.7393 14.3338 32.5595 15.4904C29.7168 20.7156 24.4436 45.2541 16.2721 39.9972C13.3047 33.7519 23.124 8.37266 29.1307 5.07166C34.0054 2.74114 40.5598 6.56835 39.751 12.2409C38.0246 25.5037 27.9816 53.8771 12.6606 56.6962C-3.97101 53.9309 9.37559 29.2036 12.5566 19.7462C13.5904 17.6421 10.2373 16.0293 9.25259 18.1648C5.20506 29.7561 -6.64672 50.8973 7.84049 59.2195C12.1146 61.4238 17.0558 59.8971 20.8439 57.4325Z" fill="#FBBC04"/>
</svg>
